<svg xmlns="http://www.w3.org/2000/svg" viewBox="0 0 24 24" fill="none">
  <path
    d="M8.8 20c-3.4 0-5.8-2-5.8-4.8C3 12 7.2 9 12.1 9c4.7 0 8 2.6 8 6.2 0 3.5-3.3 4.8-5.9 4.8"
    stroke="currentColor"
    stroke-width="1.8"
    stroke-linecap="round"
    stroke-linejoin="round"
  />
  <path
    d="M10.2 14.6c.4-.5 1.1-.8 1.8-.8.8 0 1.5.3 1.9.9"
    stroke="currentColor"
    stroke-width="1.8"
    stroke-linecap="round"
    stroke-linejoin="round"
  />
  <path
    d="M9.2 16.9c.7.5 1.8.8 2.9.8 1.1 0 2.2-.3 2.9-.9"
    stroke="currentColor"
    stroke-width="1.8"
    stroke-linecap="round"
    stroke-linejoin="round"
  />
  <path
    d="M15.9 5.5c1.6-.4 3.3.1 4.4 1.4 1.1 1.2 1.4 2.9 1 4.4"
    stroke="currentColor"
    stroke-width="1.8"
    stroke-linecap="round"
    stroke-linejoin="round"
  />
  <path
    d="M15.1 8.1c.8-.2 1.6 0 2.1.6s.7 1.4.5 2.2"
    stroke="currentColor"
    stroke-width="1.8"
    stroke-linecap="round"
    stroke-linejoin="round"
  />
</svg>
