<svg width="128" height="128" viewBox="0 0 128 128" fill="none" xmlns="http://www.w3.org/2000/svg">
  <defs>
    <linearGradient id="xb-bg" x1="20" y1="16" x2="108" y2="112" gradientUnits="userSpaceOnUse">
      <stop stop-color="#FF7A8A"/>
      <stop offset="1" stop-color="#FF4F6D"/>
    </linearGradient>
    <linearGradient id="xb-glow" x1="32" y1="24" x2="94" y2="98" gradientUnits="userSpaceOnUse">
      <stop stop-color="#FFE0E5" stop-opacity="0.92"/>
      <stop offset="1" stop-color="#FFFFFF" stop-opacity="0.7"/>
    </linearGradient>
  </defs>
  <rect x="0" y="0" width="128" height="128" rx="34" fill="url(#xb-bg)"/>
  <path
    d="M36 35C41.72 35 46.6714 38.2906 49.0573 43.0792L64 67.5L48.4632 92.8709C46.0266 96.8492 41.6947 99.25 37 99.25C29.4061 99.25 23.25 93.0939 23.25 85.5C23.25 83.05 23.8932 80.643 25.1149 78.5194L38.3349 55.5353L25.8648 50.7464C21.6268 49.1187 18.75 45.0393 18.75 40.5C18.75 34.1487 23.8987 29 30.25 29C33.1752 29 35.9067 30.0937 38.0008 32.062L38.8696 32.8787L39.862 31.8529C42.9962 28.6118 47.3855 26.75 52 26.75C59.8799 26.75 66.6437 32.1324 69.0739 39.6287L64 48L54.4191 42.3546C52.1217 41.0011 49.5038 40.25 46.837 40.25H46C42.2484 40.25 38.9602 38.2444 37.1623 35.2482L36.9035 34.8166L36 35Z"
    fill="url(#xb-glow)"
    fill-opacity="0.22"
  />
  <path
    d="M44 34L64 58.8L84 34H96L70 64L96 94H84L64 69.2L44 94H32L58 64L32 34H44Z"
    fill="white"
  />
  <path
    d="M64 78.5C64 78.5 52 69.7114 52 60.5C52 55.2533 56.2533 51 61.5 51C64.5376 51 66.7677 52.5872 68 54.5176C69.2323 52.5872 71.4624 51 74.5 51C79.7467 51 84 55.2533 84 60.5C84 69.7114 72 78.5 72 78.5L68.9208 80.6241C68.3591 81.0116 67.6409 81.0116 67.0792 80.6241L64 78.5Z"
    fill="#FF5F7A"
  />
</svg>
